<svg id="_4on_logo" data-name="4on logo" xmlns="http://www.w3.org/2000/svg" viewBox="0 0 122.6 85.3"><defs><style>.cls-1{fill:#ff7878;}</style></defs><title>4on logo</title><g id="_Group_" data-name="&lt;Group&gt;"><path class="cls-1" d="M56.3,50.7L61.9,0H44.6L1.5,49.9a6.1,6.1,0,0,0-1.5,4v6.5a5.8,5.8,0,0,0,5.8,5.8H36.9l-1.8,19H52.5l2.1-19H64.7A9.2,9.2,0,0,0,73.9,57V50.7H56.3Zm-16.6.1H19.9L41.6,26Z"/></g><path id="_Compound_Path_" data-name="&lt;Compound Path&gt;" class="cls-1" d="M105.4,10.6l12.9,15.5V10.6h4.3V0H68.1L63.5,45.4h59.1V35.6h-4.3l-11.5-15v15h-6.2v-25h4.8Zm-20,25.3c-6.7,0-12.1-5.7-12.1-12.6s5.4-12.6,12.1-12.6,12.1,5.7,12.1,12.6S92.1,35.9,85.4,35.9Z"/><ellipse class="cls-1" cx="85.4" cy="23.3" rx="7.2" ry="7.5"/></svg>